<svg xmlns="http://www.w3.org/2000/svg" height="644pt" version="1.1" viewBox="-59 0 644 644.215" width="644pt">
<g id="surface1">
<path d="M 158.578125 0 L 468.453125 0 C 500.785156 0 526.996094 26.210938 526.996094 58.546875 L 526.996094 585.453125 C 526.996094 617.789062 500.785156 644 468.453125 644 L 58.632812 644 C 26.300781 644 0.0898438 617.789062 0.0898438 585.453125 L 0.0898438 158.488281 C 0.0898438 150.726562 3.171875 143.28125 8.660156 137.789062 L 137.878906 8.574219 C 143.367188 3.082031 150.8125 0 158.578125 0 Z M 158.578125 0 " style="stroke:none;fill-rule:nonzero;fill: #dde0ef;fill-opacity:1;"/>

<path d="M 204.996094 41.398438 L 204.996094 163.511719 C 204.996094 186.375 186.460938 204.910156 163.597656 204.910156 L 41.484375 204.910156 C 18.621094 204.910156 0.0898438 186.375 0.0898438 163.511719 C 0.0898438 152.53125 4.449219 142.003906 12.214844 134.238281 L 134.324219 12.125 C 142.089844 4.363281 152.621094 0 163.597656 0 C 186.460938 0 204.996094 18.535156 204.996094 41.398438 Z M 204.996094 41.398438 " style="stroke:none;fill-rule:nonzero;fill: #9a9dad;fill-opacity:1;"/>
<path d="M 439.179688 439.089844 L 409.90625 439.089844 L 409.90625 409.816406 C 409.898438 393.652344 396.789062 380.550781 380.621094 380.554688 C 364.464844 380.5625 351.367188 393.660156 351.359375 409.816406 L 351.359375 439.089844 L 322.085938 439.089844 C 305.921875 439.074219 292.800781 452.167969 292.785156 468.332031 C 292.765625 484.5 305.859375 497.617188 322.027344 497.636719 C 322.046875 497.636719 322.066406 497.636719 322.085938 497.636719 L 351.359375 497.636719 L 351.359375 526.910156 C 351.359375 543.074219 364.464844 556.179688 380.632812 556.179688 C 396.800781 556.179688 409.90625 543.074219 409.90625 526.910156 L 409.90625 497.636719 L 439.179688 497.636719 C 455.347656 497.636719 468.453125 484.53125 468.453125 468.363281 C 468.453125 452.195312 455.347656 439.089844 439.179688 439.089844 Z M 439.179688 439.089844 " style="stroke:none;fill-rule:nonzero;fill: #000000;fill-opacity:1;"/>
<path d="M 290.015625 547.5625 L 216.632812 378.132812 C 206.84375 355.542969 180.597656 345.160156 158.003906 354.945312 C 147.609375 359.449219 139.320312 367.738281 134.816406 378.132812 L 61.429688 547.5625 C 54.957031 560.492188 60.195312 576.222656 73.125 582.695312 C 86.058594 589.167969 101.785156 583.929688 108.257812 571 C 108.261719 570.992188 108.265625 570.988281 108.265625 570.980469 L 126.714844 526.910156 L 224.734375 526.910156 L 243.179688 570.980469 C 249.648438 583.914062 265.375 589.15625 278.308594 582.691406 C 291.242188 576.222656 296.484375 560.496094 290.015625 547.5625 Z M 151.21875 468.363281 L 175.722656 409.816406 L 200.230469 468.363281 Z M 151.21875 468.363281 " style="stroke:none;fill-rule:nonzero;fill: rgb(0, 0, 0);fill-opacity:1;"/>
<path d="M 35.421875 140.300781 L 140.390625 35.335938 C 148.472656 27.25 161.578125 27.25 169.660156 35.335938 C 177.746094 43.417969 177.746094 56.523438 169.660156 64.609375 L 64.695312 169.574219 C 56.613281 177.65625 43.507812 177.65625 35.425781 169.574219 C 27.339844 161.488281 27.339844 148.382812 35.421875 140.300781 Z M 35.421875 140.300781 " style=" stroke:none;fill-rule:nonzero;fill:rgb(93.72549%,94.901961%,100%);fill-opacity:1;"/>
</g>
</svg>